# xmcd
#
# Track frame offsets:
#	150
#	15864
#	34043
#	51264
#	69619
#	84875
#	102875
#	120023
#	140672
#	157687
#	168806
#	184842
#	202419
#	216270
#	234794
#	249500
#	265533
#	283514
#	299845
#	313661
#	332635
#
# Disc length: 4768 seconds
#
# Revision: 1
# Processed by: cddbd v1.5.2PL0 Copyright (c) Steve Scherf et al.
# Submitted via: audiograbber 1.83.01
#
DISCID=1f129e15
DTITLE=Glenn Erickson - Diamondback Records Compilation 5
DYEAR=2013
DGENRE=
TTITLE0=Women Wild, Whiskey Strong -B Jeff Stone
TTITLE1=How Do I Break It To My Heart -Julie Richardson
TTITLE2=Champagne Charlie -Bob Runk
TTITLE3=I´ll Be There Ryan Sommerville
TTITLE4=Country Girl -Marcella Tambouris
TTITLE5=Difference Of Opinon -Crawford Boyd
TTITLE6=Breakin Out -Pecos Red
TTITLE7=Rattle My Bones -Joe Gillaspie 
TTITLE8=Broken Tree Saloon -Ray William
TTITLE9=Spotty My Dog -Garry Peters
TTITLE10=Like I Love You -Tim Bupper
TTITLE11=I´ll Give the Troucking Away
TTITLE12=Keep Hangin On -Walter Walsh
TTITLE13=King Of His Castle -Glenn Erickson
TTITLE14=My Youth Back -Fraser Newcombe
TTITLE15=I´ll Have A Man With That -Ann Pescoe
TTITLE16=You Won´t Suffer -Bob Runk
TTITLE17=She Dance Alone -Hermann Lammers Meyer
TTITLE18=Two Beers Ago -Darren Rhodes
TTITLE19=Jesus Don´t Know How To Hate -Sylvia Saénz
TTITLE20=Blue Sued, Hartbreak, Hound Dog -Glenn Erickson
EXTD=
EXTT0=
EXTT1=
EXTT2=
EXTT3=
EXTT4=
EXTT5=
EXTT6=
EXTT7=
EXTT8=
EXTT9=
EXTT10=
EXTT11=
EXTT12=
EXTT13=
EXTT14=
EXTT15=
EXTT16=
EXTT17=
EXTT18=
EXTT19=
EXTT20=
PLAYORDER=
